# xmcd
#
# Track frame offsets:
#	150
#	12771
#	21547
#	29064
#	50973
#
# Disc length: 1391 seconds
#
# Revision: 3
# Processed by: cddbd v1.5.2PL0 Copyright (c) Steve Scherf et al.
# Submitted via: audiograbber 1.83.01
#
DISCID=43056d05
DTITLE=Green, Adam - Emily
DYEAR=2004
DGENRE=Rock
TTITLE0=Emily
TTITLE1=The rotary shakes
TTITLE2=Crackhouse blues (Alternate version)
TTITLE3=What a waster
TTITLE4=Emily (Video)
EXTD=
EXTT0=
EXTT1=
EXTT2=
EXTT3=
EXTT4=
PLAYORDER=
